<?xml version="1.0" standalone="no"?>
<!DOCTYPE svg PUBLIC "-//W3C//DTD SVG 20010904//EN"
 "http://www.w3.org/TR/2001/REC-SVG-20010904/DTD/svg10.dtd">
<svg version="1.0" xmlns="http://www.w3.org/2000/svg"
 width="920.000000pt" height="512.000000pt" viewBox="0 0 920.000000 512.000000"
 preserveAspectRatio="xMidYMid meet">

<g transform="translate(0.000000,512.000000) scale(0.100000,-0.100000)"
fill="#000000" stroke="none">
<path d="M6150 5114 c-25 -3 -261 -18 -525 -34 -552 -35 -1305 -83 -1640 -105
-126 -8 -414 -26 -640 -40 -401 -25 -411 -27 -465 -53 -45 -23 -59 -36 -82
-81 l-28 -53 0 -2339 c0 -2584 -5 -2375 62 -2398 22 -8 514 -11 1625 -11 1765
0 1650 -4 1678 64 9 20 15 67 15 106 l0 70 48 0 c96 0 171 38 209 105 l23 40
0 2304 0 2303 -21 37 c-41 74 -113 98 -259 85z m128 -2425 c2 -1806 -1 -2269
-10 -2276 -7 -6 -37 -13 -65 -17 l-53 -7 0 2141 c0 2369 5 2196 -64 2225 -30
13 -231 15 -1433 17 -769 1 -1378 3 -1353 5 25 1 232 15 460 29 228 14 852 54
1385 89 534 35 1006 62 1050 62 l80 -2 3 -2266z m-2240 1720 c26 -10 26 -12
10 -56 -11 -30 -15 -33 -38 -27 -14 4 -43 8 -65 8 -65 1 -58 -25 20 -68 36
-21 72 -48 81 -61 37 -57 8 -143 -58 -170 -45 -18 -122 -20 -167 -4 -29 10
-31 14 -31 59 l0 49 35 -15 c38 -16 121 -19 129 -5 12 19 -6 37 -70 71 -40 21
-72 46 -80 62 -36 70 1 149 79 167 43 9 114 5 155 -10z m309 0 l31 -10 -16
-40 c-14 -36 -18 -40 -41 -33 -14 4 -44 8 -66 8 -64 1 -58 -26 14 -64 83 -45
104 -70 104 -124 0 -54 -20 -88 -66 -110 -40 -18 -129 -21 -176 -5 -29 10 -31
14 -31 60 l0 49 39 -16 c50 -20 125 -15 129 8 2 11 -15 26 -57 48 -73 39 -100
67 -107 111 -17 107 97 163 243 118z m665 11 c48 -14 97 -55 114 -97 22 -53
18 -161 -8 -213 -62 -122 -271 -122 -335 0 -25 47 -31 136 -13 201 24 87 137
138 242 109z m-1722 -18 c47 -23 73 -74 65 -127 -11 -74 -57 -114 -134 -117
l-40 -1 -3 -66 -3 -66 -52 -3 -53 -3 0 200 0 201 93 0 c68 0 101 -5 127 -18z
m417 -177 c34 -104 63 -193 63 -197 0 -5 -26 -8 -58 -8 l-58 0 -10 38 -9 37
-65 0 -65 0 -9 -37 -10 -38 -58 0 c-45 0 -59 3 -56 14 2 7 30 97 63 200 l60
187 74 -3 74 -3 64 -190z m936 181 c46 -19 69 -49 74 -98 8 -82 -47 -144 -135
-150 l-42 -3 0 -67 0 -68 -55 0 -55 0 0 200 0 200 90 0 c54 0 104 -6 123 -14z
m809 -10 c57 -38 59 -145 3 -182 l-24 -16 50 -74 c72 -107 72 -104 3 -104
l-59 0 -43 75 c-56 99 -72 99 -72 0 l0 -75 -50 0 -49 0 -3 201 -3 201 110 -4
c85 -3 116 -8 137 -22z m396 -18 l-3 -43 -47 -3 -48 -3 0 -155 0 -154 -55 0
-55 0 0 155 0 155 -50 0 -50 0 0 45 0 45 156 0 155 0 -3 -42z m-1245 -752 c54
-23 86 -67 123 -172 44 -123 92 -318 100 -404 10 -111 34 -104 -366 -104 -322
-1 -343 0 -362 18 -18 16 -19 26 -14 78 10 82 69 317 106 420 56 156 88 177
263 178 79 0 128 -5 150 -14z m447 -132 c226 -122 410 -311 527 -540 60 -118
68 -147 48 -164 -12 -10 -38 -6 -138 24 -67 20 -192 50 -277 66 -207 40 -218
49 -245 200 -19 107 -60 276 -90 373 -30 92 -29 82 -10 101 14 13 20 13 58 0
23 -8 80 -35 127 -60z m-993 50 c3 -9 -8 -61 -26 -117 -35 -115 -62 -231 -85
-361 -24 -137 -38 -148 -246 -186 -63 -12 -162 -35 -220 -52 -58 -16 -120 -34
-138 -40 -74 -21 -80 14 -23 134 60 124 135 233 233 334 105 108 213 188 345
255 102 51 149 61 160 33z m747 -755 c16 -8 39 -27 50 -42 20 -28 21 -39 21
-362 0 -457 37 -420 -420 -420 -287 0 -323 2 -352 18 -66 35 -68 47 -68 392 0
337 4 371 53 403 38 25 117 30 417 28 212 -2 276 -5 299 -17z m-929 -43 c19
-13 20 -31 20 -357 0 -406 6 -386 -103 -375 -89 9 -355 78 -445 116 -124 51
-147 92 -147 257 0 120 16 173 64 211 49 38 221 95 411 136 129 29 174 31 200
12z m1461 -36 c240 -61 325 -103 365 -180 8 -16 13 -67 13 -145 0 -129 -8
-156 -59 -207 -44 -44 -300 -126 -495 -159 -88 -14 -126 -8 -136 23 -4 12 -7
170 -6 351 0 390 -4 373 101 363 35 -4 133 -24 217 -46z m-1881 -763 c66 -19
172 -44 235 -56 228 -43 231 -45 260 -211 25 -136 51 -244 88 -358 41 -128 22
-140 -116 -77 -246 114 -474 339 -596 589 -46 96 -56 140 -33 150 15 6 14 6
162 -37z m2175 28 c15 -18 9 -38 -46 -148 -117 -238 -329 -451 -563 -567 -105
-53 -138 -62 -156 -44 -19 19 -19 9 9 101 36 114 63 224 86 345 21 117 38 160
73 183 13 8 75 24 138 36 122 22 267 57 364 88 73 24 79 25 95 6z m-813 -171
c29 -38 -15 -276 -91 -488 -58 -163 -92 -187 -266 -187 -133 0 -172 11 -214
62 -45 53 -129 326 -157 508 -13 84 -13 84 12 105 24 21 32 21 363 20 322 0
339 -1 353 -20z m593 -1359 l0 -125 -955 0 -955 0 0 125 0 125 955 0 955 0 0
-125z"/>
<path d="M4904 4317 c-20 -18 -28 -35 -31 -73 -9 -94 33 -147 102 -130 68 17
75 185 9 215 -36 16 -49 14 -80 -12z"/>
<path d="M3180 4285 c0 -51 16 -59 50 -25 33 33 19 70 -27 70 -21 0 -23 -5
-23 -45z"/>
<path d="M3552 4280 c-7 -34 -15 -67 -19 -75 -4 -12 4 -15 37 -15 35 0 41 3
36 18 -3 9 -10 40 -17 67 -17 72 -23 73 -37 5z"/>
<path d="M4540 4285 c0 -50 13 -57 50 -27 18 14 22 25 16 45 -5 22 -12 27 -36
27 -29 0 -30 -2 -30 -45z"/>
<path d="M5310 4295 c0 -41 2 -45 24 -45 29 0 56 24 56 50 0 21 -28 40 -59 40
-18 0 -21 -6 -21 -45z"/>
</g>
</svg>
